<svg width="20" height="20" viewBox="0 0 20 20" fill="none" xmlns="http://www.w3.org/2000/svg">
<path fill-rule="evenodd" clip-rule="evenodd" d="M11.853 11.2536C11.7169 11.5071 11.5025 11.7213 11.2492 11.8579L6.43893 14.4112C5.85482 14.7234 5.19239 14.0801 5.52318 13.4955L8.07488 8.68103C8.21096 8.4275 8.42492 8.21337 8.67825 8.07676L13.489 5.52347C14.0735 5.192 14.7351 5.85495 14.4043 6.43952L11.853 11.2536ZM0 9.964C0 15.4597 4.46798 19.9275 9.96377 19.9275C15.46 19.9275 19.9275 15.4597 19.9275 9.964C19.9275 4.46788 15.46 0 9.96377 0C4.46798 0 0 4.46788 0 9.964Z" fill="#E7F1FF" fill-opacity="0.53"/>
</svg>
